<svg xmlns="http://www.w3.org/2000/svg" fill="none" viewBox="0 0 128 128">
    <path fill-rule="evenodd" clip-rule="evenodd" d="M77.2337 50.4486C73.3126 47.672 68.6449 46.2417 63.8928 46.3607L63.8872 46.3608C51.6503 46.6525 41.7411 57.2102 41.809 69.8745L41.809 69.8776C41.8257 73.4033 42.6155 76.8793 44.1191 80.0444C45.622 83.2082 47.799 85.9792 50.4867 88.1493C52.0502 89.4076 53.3157 91.0174 54.187 92.8566C54.8599 94.2771 55.2841 95.8055 55.4436 97.3713H73.4354C73.5985 95.7933 74.0291 94.2535 74.711 92.8235C75.5881 90.9842 76.8579 89.3746 78.4245 88.1162C82.1585 85.0839 84.8746 80.9146 86.1877 76.1987C87.5021 71.4788 87.3444 66.4511 85.7372 61.829C84.1299 57.2069 81.1547 53.2251 77.2337 50.4486ZM63.6638 36.4798C70.4239 36.3112 77.0639 38.3461 82.6417 42.2958C88.2203 46.2461 92.4533 51.9111 94.7399 58.4872C97.0266 65.0632 97.2509 72.2163 95.381 78.9314C93.5111 85.6466 89.6419 91.5828 84.3225 95.8979L84.2996 95.9163C83.8745 96.2569 83.53 96.693 83.2922 97.1916C83.0556 97.6878 82.9309 98.2329 82.9275 98.7859V99.4809C82.9275 101.543 82.1347 103.52 80.7237 104.978C79.3126 106.436 77.3987 107.255 75.4032 107.255H53.4733C51.4778 107.255 49.5639 106.436 48.1529 104.978C46.7418 103.52 45.949 101.543 45.949 99.4809V98.776C45.9482 98.2303 45.8271 97.6919 45.5949 97.2018C45.3624 96.711 45.0246 96.2815 44.6073 95.9459L44.6009 95.9407C40.7727 92.8509 37.6719 88.9049 35.5315 84.3991C33.3915 79.8944 32.2672 74.9472 32.243 69.9292M63.6638 36.4798C46.195 36.8977 32.148 51.8914 32.243 69.926ZM64.0409 56.0577C64.9217 53.4846 67.6547 52.1365 70.1451 53.0465C73.1796 54.1554 75.8534 56.1193 77.8641 58.7162C79.8749 61.313 81.1424 64.4393 81.5234 67.7415C81.836 70.4516 79.9631 72.9105 77.3401 73.2335C74.717 73.5566 72.3371 71.6215 72.0244 68.9114C71.8547 67.4402 71.29 66.0474 70.3942 64.8905C69.4984 63.7336 68.3072 62.8586 66.9553 62.3646C64.4649 61.4545 63.16 58.6308 64.0409 56.0577ZM45.9492 115.058C45.9492 112.329 48.0906 110.116 50.7322 110.116H78.1445C80.7861 110.116 82.9276 112.329 82.9276 115.058C82.9276 117.787 80.7861 120 78.1445 120H50.7322C48.0906 120 45.9492 117.787 45.9492 115.058Z" fill="white"/>
    <path fill-rule="evenodd" clip-rule="evenodd" d="M64 8C67.4518 8 70.25 10.8588 70.25 14.3854V20.7708C70.25 24.2973 67.4518 27.1561 64 27.1561C60.5482 27.1561 57.75 24.2973 57.75 20.7708V14.3854C57.75 10.8588 60.5482 8 64 8Z" fill="white"/>
    <path fill-rule="evenodd" clip-rule="evenodd" d="M112.169 22.641C114.61 25.1346 114.61 29.1776 112.169 31.6713L105.919 38.0567C103.479 40.5503 99.5213 40.5503 97.0806 38.0567C94.6398 35.563 94.6398 31.52 97.0806 29.0264L103.331 22.641C105.771 20.1474 109.729 20.1474 112.169 22.641Z" fill="white"/>
    <path fill-rule="evenodd" clip-rule="evenodd" d="M15.8306 22.641C18.2714 20.1474 22.2286 20.1474 24.6694 22.641L30.9194 29.0264C33.3602 31.52 33.3602 35.563 30.9194 38.0567C28.4786 40.5503 24.5214 40.5503 22.0806 38.0567L15.8306 31.6713C13.3898 29.1776 13.3898 25.1346 15.8306 22.641Z" fill="white"/>

    <style>
        path { fill: #000; }
        @media (prefers-color-scheme: dark) {
            path { fill: #FFF; }
        }
    </style>
</svg>
